<svg width="184" height="51" viewBox="0 0 184 51" fill="none" xmlns="http://www.w3.org/2000/svg">
<g id="track">
<g id="Vector" filter="url(#filter0_d)">
<path d="M60 42H44.25V36.5H39V32H44.25V23H39V19H44.25V11H39V6H44.25V1H60V4.5H53.7V13H60V17H53.7V25H60V30H53.7V38H60V42Z" fill="#423737"/>
<path d="M60 42H44.25V36.5H39V32H44.25V23H39V19H44.25V11H39V6H44.25V1H60V4.5H53.7V13H60V17H53.7V25H60V30H53.7V38H60V42Z" stroke="black"/>
</g>
<g id="Vector_2" filter="url(#filter1_d)">
<path d="M43 42H27.25V36.5H22V32H27.25V23H22V19H27.25V11H22V6H27.25V1H43V4.5H36.7V13H43V17H36.7V25H43V30H36.7V38H43V42Z" fill="#423737"/>
<path d="M43 42H27.25V36.5H22V32H27.25V23H22V19H27.25V11H22V6H27.25V1H43V4.5H36.7V13H43V17H36.7V25H43V30H36.7V38H43V42Z" stroke="black"/>
</g>
<g id="Vector_3" filter="url(#filter2_d)">
<path d="M26 42H10.25V36.5H5V32H10.25V23H5V19H10.25V11H5V6H10.25V1H26V4.5H19.7V13H26V17H19.7V25H26V30H19.7V38H26V42Z" fill="#423737"/>
<path d="M26 42H10.25V36.5H5V32H10.25V23H5V19H10.25V11H5V6H10.25V1H26V4.5H19.7V13H26V17H19.7V25H26V30H19.7V38H26V42Z" stroke="black"/>
</g>
<g id="Vector_4" filter="url(#filter3_d)">
<path d="M77 42H61.25V36.5H56V32H61.25V23H56V19H61.25V11H56V6H61.25V1H77V4.5H70.7V13H77V17H70.7V25H77V30H70.7V38H77V42Z" fill="#423737"/>
<path d="M77 42H61.25V36.5H56V32H61.25V23H56V19H61.25V11H56V6H61.25V1H77V4.5H70.7V13H77V17H70.7V25H77V30H70.7V38H77V42Z" stroke="black"/>
</g>
<g id="Vector_5" filter="url(#filter4_d)">
<path d="M128 42H112.25V36.5H107V32H112.25V23H107V19H112.25V11H107V6H112.25V1H128V4.5H121.7V13H128V17H121.7V25H128V30H121.7V38H128V42Z" fill="#423737"/>
<path d="M128 42H112.25V36.5H107V32H112.25V23H107V19H112.25V11H107V6H112.25V1H128V4.5H121.7V13H128V17H121.7V25H128V30H121.7V38H128V42Z" stroke="black"/>
</g>
<g id="Vector_6" filter="url(#filter5_d)">
<path d="M179 42H163.25V36.5H158V32H163.25V23H158V19H163.25V11H158V6H163.25V1H179V4.5H172.7V13H179V17H172.7V25H179V30H172.7V38H179V42Z" fill="#423737"/>
<path d="M179 42H163.25V36.5H158V32H163.25V23H158V19H163.25V11H158V6H163.25V1H179V4.5H172.7V13H179V17H172.7V25H179V30H172.7V38H179V42Z" stroke="black"/>
</g>
<g id="Vector_7" filter="url(#filter6_d)">
<path d="M162 42H146.25V36.5H141V32H146.25V23H141V19H146.25V11H141V6H146.25V1H162V4.5H155.7V13H162V17H155.7V25H162V30H155.7V38H162V42Z" fill="#423737"/>
<path d="M162 42H146.25V36.5H141V32H146.25V23H141V19H146.25V11H141V6H146.25V1H162V4.5H155.7V13H162V17H155.7V25H162V30H155.7V38H162V42Z" stroke="black"/>
</g>
<g id="Vector_8" filter="url(#filter7_d)">
<path d="M145 42H129.25V36.5H124V32H129.25V23H124V19H129.25V11H124V6H129.25V1H145V4.5H138.7V13H145V17H138.7V25H145V30H138.7V38H145V42Z" fill="#423737"/>
<path d="M145 42H129.25V36.5H124V32H129.25V23H124V19H129.25V11H124V6H129.25V1H145V4.5H138.7V13H145V17H138.7V25H145V30H138.7V38H145V42Z" stroke="black"/>
</g>
<g id="Vector_9" filter="url(#filter8_d)">
<path d="M111 42H95.25V36.5H90V32H95.25V23H90V19H95.25V11H90V6H95.25V1H111V4.5H104.7V13H111V17H104.7V25H111V30H104.7V38H111V42Z" fill="#423737"/>
<path d="M111 42H95.25V36.5H90V32H95.25V23H90V19H95.25V11H90V6H95.25V1H111V4.5H104.7V13H111V17H104.7V25H111V30H104.7V38H111V42Z" stroke="black"/>
</g>
<g id="Vector_10" filter="url(#filter9_d)">
<path d="M94 42H78.25V36.5H73V32H78.25V23H73V19H78.25V11H73V6H78.25V1H94V4.5H87.7V13H94V17H87.7V25H94V30H87.7V38H94V42Z" fill="#423737"/>
<path d="M94 42H78.25V36.5H73V32H78.25V23H73V19H78.25V11H73V6H78.25V1H94V4.5H87.7V13H94V17H87.7V25H94V30H87.7V38H94V42Z" stroke="black"/>
</g>
</g>
<defs>
<filter id="filter0_d" x="34.5" y="0.5" width="30" height="50" filterUnits="userSpaceOnUse" color-interpolation-filters="sRGB">
<feFlood flood-opacity="0" result="BackgroundImageFix"/>
<feColorMatrix in="SourceAlpha" type="matrix" values="0 0 0 0 0 0 0 0 0 0 0 0 0 0 0 0 0 0 127 0"/>
<feOffset dy="4"/>
<feGaussianBlur stdDeviation="2"/>
<feColorMatrix type="matrix" values="0 0 0 0 0 0 0 0 0 0 0 0 0 0 0 0 0 0 0.25 0"/>
<feBlend mode="normal" in2="BackgroundImageFix" result="effect1_dropShadow"/>
<feBlend mode="normal" in="SourceGraphic" in2="effect1_dropShadow" result="shape"/>
</filter>
<filter id="filter1_d" x="17.5" y="0.5" width="30" height="50" filterUnits="userSpaceOnUse" color-interpolation-filters="sRGB">
<feFlood flood-opacity="0" result="BackgroundImageFix"/>
<feColorMatrix in="SourceAlpha" type="matrix" values="0 0 0 0 0 0 0 0 0 0 0 0 0 0 0 0 0 0 127 0"/>
<feOffset dy="4"/>
<feGaussianBlur stdDeviation="2"/>
<feColorMatrix type="matrix" values="0 0 0 0 0 0 0 0 0 0 0 0 0 0 0 0 0 0 0.25 0"/>
<feBlend mode="normal" in2="BackgroundImageFix" result="effect1_dropShadow"/>
<feBlend mode="normal" in="SourceGraphic" in2="effect1_dropShadow" result="shape"/>
</filter>
<filter id="filter2_d" x="0.5" y="0.5" width="30" height="50" filterUnits="userSpaceOnUse" color-interpolation-filters="sRGB">
<feFlood flood-opacity="0" result="BackgroundImageFix"/>
<feColorMatrix in="SourceAlpha" type="matrix" values="0 0 0 0 0 0 0 0 0 0 0 0 0 0 0 0 0 0 127 0"/>
<feOffset dy="4"/>
<feGaussianBlur stdDeviation="2"/>
<feColorMatrix type="matrix" values="0 0 0 0 0 0 0 0 0 0 0 0 0 0 0 0 0 0 0.25 0"/>
<feBlend mode="normal" in2="BackgroundImageFix" result="effect1_dropShadow"/>
<feBlend mode="normal" in="SourceGraphic" in2="effect1_dropShadow" result="shape"/>
</filter>
<filter id="filter3_d" x="51.5" y="0.5" width="30" height="50" filterUnits="userSpaceOnUse" color-interpolation-filters="sRGB">
<feFlood flood-opacity="0" result="BackgroundImageFix"/>
<feColorMatrix in="SourceAlpha" type="matrix" values="0 0 0 0 0 0 0 0 0 0 0 0 0 0 0 0 0 0 127 0"/>
<feOffset dy="4"/>
<feGaussianBlur stdDeviation="2"/>
<feColorMatrix type="matrix" values="0 0 0 0 0 0 0 0 0 0 0 0 0 0 0 0 0 0 0.25 0"/>
<feBlend mode="normal" in2="BackgroundImageFix" result="effect1_dropShadow"/>
<feBlend mode="normal" in="SourceGraphic" in2="effect1_dropShadow" result="shape"/>
</filter>
<filter id="filter4_d" x="102.5" y="0.5" width="30" height="50" filterUnits="userSpaceOnUse" color-interpolation-filters="sRGB">
<feFlood flood-opacity="0" result="BackgroundImageFix"/>
<feColorMatrix in="SourceAlpha" type="matrix" values="0 0 0 0 0 0 0 0 0 0 0 0 0 0 0 0 0 0 127 0"/>
<feOffset dy="4"/>
<feGaussianBlur stdDeviation="2"/>
<feColorMatrix type="matrix" values="0 0 0 0 0 0 0 0 0 0 0 0 0 0 0 0 0 0 0.25 0"/>
<feBlend mode="normal" in2="BackgroundImageFix" result="effect1_dropShadow"/>
<feBlend mode="normal" in="SourceGraphic" in2="effect1_dropShadow" result="shape"/>
</filter>
<filter id="filter5_d" x="153.5" y="0.5" width="30" height="50" filterUnits="userSpaceOnUse" color-interpolation-filters="sRGB">
<feFlood flood-opacity="0" result="BackgroundImageFix"/>
<feColorMatrix in="SourceAlpha" type="matrix" values="0 0 0 0 0 0 0 0 0 0 0 0 0 0 0 0 0 0 127 0"/>
<feOffset dy="4"/>
<feGaussianBlur stdDeviation="2"/>
<feColorMatrix type="matrix" values="0 0 0 0 0 0 0 0 0 0 0 0 0 0 0 0 0 0 0.25 0"/>
<feBlend mode="normal" in2="BackgroundImageFix" result="effect1_dropShadow"/>
<feBlend mode="normal" in="SourceGraphic" in2="effect1_dropShadow" result="shape"/>
</filter>
<filter id="filter6_d" x="136.5" y="0.5" width="30" height="50" filterUnits="userSpaceOnUse" color-interpolation-filters="sRGB">
<feFlood flood-opacity="0" result="BackgroundImageFix"/>
<feColorMatrix in="SourceAlpha" type="matrix" values="0 0 0 0 0 0 0 0 0 0 0 0 0 0 0 0 0 0 127 0"/>
<feOffset dy="4"/>
<feGaussianBlur stdDeviation="2"/>
<feColorMatrix type="matrix" values="0 0 0 0 0 0 0 0 0 0 0 0 0 0 0 0 0 0 0.25 0"/>
<feBlend mode="normal" in2="BackgroundImageFix" result="effect1_dropShadow"/>
<feBlend mode="normal" in="SourceGraphic" in2="effect1_dropShadow" result="shape"/>
</filter>
<filter id="filter7_d" x="119.5" y="0.5" width="30" height="50" filterUnits="userSpaceOnUse" color-interpolation-filters="sRGB">
<feFlood flood-opacity="0" result="BackgroundImageFix"/>
<feColorMatrix in="SourceAlpha" type="matrix" values="0 0 0 0 0 0 0 0 0 0 0 0 0 0 0 0 0 0 127 0"/>
<feOffset dy="4"/>
<feGaussianBlur stdDeviation="2"/>
<feColorMatrix type="matrix" values="0 0 0 0 0 0 0 0 0 0 0 0 0 0 0 0 0 0 0.25 0"/>
<feBlend mode="normal" in2="BackgroundImageFix" result="effect1_dropShadow"/>
<feBlend mode="normal" in="SourceGraphic" in2="effect1_dropShadow" result="shape"/>
</filter>
<filter id="filter8_d" x="85.5" y="0.5" width="30" height="50" filterUnits="userSpaceOnUse" color-interpolation-filters="sRGB">
<feFlood flood-opacity="0" result="BackgroundImageFix"/>
<feColorMatrix in="SourceAlpha" type="matrix" values="0 0 0 0 0 0 0 0 0 0 0 0 0 0 0 0 0 0 127 0"/>
<feOffset dy="4"/>
<feGaussianBlur stdDeviation="2"/>
<feColorMatrix type="matrix" values="0 0 0 0 0 0 0 0 0 0 0 0 0 0 0 0 0 0 0.25 0"/>
<feBlend mode="normal" in2="BackgroundImageFix" result="effect1_dropShadow"/>
<feBlend mode="normal" in="SourceGraphic" in2="effect1_dropShadow" result="shape"/>
</filter>
<filter id="filter9_d" x="68.5" y="0.5" width="30" height="50" filterUnits="userSpaceOnUse" color-interpolation-filters="sRGB">
<feFlood flood-opacity="0" result="BackgroundImageFix"/>
<feColorMatrix in="SourceAlpha" type="matrix" values="0 0 0 0 0 0 0 0 0 0 0 0 0 0 0 0 0 0 127 0"/>
<feOffset dy="4"/>
<feGaussianBlur stdDeviation="2"/>
<feColorMatrix type="matrix" values="0 0 0 0 0 0 0 0 0 0 0 0 0 0 0 0 0 0 0.25 0"/>
<feBlend mode="normal" in2="BackgroundImageFix" result="effect1_dropShadow"/>
<feBlend mode="normal" in="SourceGraphic" in2="effect1_dropShadow" result="shape"/>
</filter>
</defs>
</svg>
